<svg width="100%" viewBox="0 0 690 910" role="img" xmlns="http://www.w3.org/2000/svg" style="">
  <title style="fill:rgb(0, 0, 0);stroke:none;color:rgb(255, 255, 255);stroke-width:1px;stroke-linecap:butt;stroke-linejoin:miter;opacity:1;font-family:&quot;Anthropic Sans&quot;, -apple-system, BlinkMacSystemFont, &quot;Segoe UI&quot;, sans-serif;font-size:16px;font-weight:400;text-anchor:start;dominant-baseline:auto">Article cover: The second is not what you think it is</title>
  <desc style="fill:rgb(0, 0, 0);stroke:none;color:rgb(255, 255, 255);stroke-width:1px;stroke-linecap:butt;stroke-linejoin:miter;opacity:1;font-family:&quot;Anthropic Sans&quot;, -apple-system, BlinkMacSystemFont, &quot;Segoe UI&quot;, sans-serif;font-size:16px;font-weight:400;text-anchor:start;dominant-baseline:auto">Minimalist editorial cover with oscillating wave lines representing caesium atom vibrations and typographic treatment of the number 9,192,631,770</desc>

  <defs>
    
  </defs>

  <rect width="680" height="900" fill="#0c0c0c" rx="0" style="fill:rgb(12, 12, 12);stroke:none;color:rgb(255, 255, 255);stroke-width:1px;stroke-linecap:butt;stroke-linejoin:miter;opacity:1;font-family:&quot;Anthropic Sans&quot;, -apple-system, BlinkMacSystemFont, &quot;Segoe UI&quot;, sans-serif;font-size:16px;font-weight:400;text-anchor:start;dominant-baseline:auto"/>

  <rect x="0" y="0" width="680" height="900" fill="#0c0c0c" style="fill:rgb(12, 12, 12);stroke:none;color:rgb(255, 255, 255);stroke-width:1px;stroke-linecap:butt;stroke-linejoin:miter;opacity:1;font-family:&quot;Anthropic Sans&quot;, -apple-system, BlinkMacSystemFont, &quot;Segoe UI&quot;, sans-serif;font-size:16px;font-weight:400;text-anchor:start;dominant-baseline:auto"/>

  <line x1="40" y1="120" x2="640" y2="120" stroke="#2a2a2a" stroke-width="0.5" style="fill:rgb(0, 0, 0);stroke:rgb(42, 42, 42);color:rgb(255, 255, 255);stroke-width:0.5px;stroke-linecap:butt;stroke-linejoin:miter;opacity:1;font-family:&quot;Anthropic Sans&quot;, -apple-system, BlinkMacSystemFont, &quot;Segoe UI&quot;, sans-serif;font-size:16px;font-weight:400;text-anchor:start;dominant-baseline:auto"/>
  <line x1="40" y1="780" x2="640" y2="780" stroke="#2a2a2a" stroke-width="0.5" style="fill:rgb(0, 0, 0);stroke:rgb(42, 42, 42);color:rgb(255, 255, 255);stroke-width:0.5px;stroke-linecap:butt;stroke-linejoin:miter;opacity:1;font-family:&quot;Anthropic Sans&quot;, -apple-system, BlinkMacSystemFont, &quot;Segoe UI&quot;, sans-serif;font-size:16px;font-weight:400;text-anchor:start;dominant-baseline:auto"/>
  <line x1="40" y1="120" x2="40" y2="780" stroke="#2a2a2a" stroke-width="0.5" style="fill:rgb(0, 0, 0);stroke:rgb(42, 42, 42);color:rgb(255, 255, 255);stroke-width:0.5px;stroke-linecap:butt;stroke-linejoin:miter;opacity:1;font-family:&quot;Anthropic Sans&quot;, -apple-system, BlinkMacSystemFont, &quot;Segoe UI&quot;, sans-serif;font-size:16px;font-weight:400;text-anchor:start;dominant-baseline:auto"/>
  <line x1="640" y1="120" x2="640" y2="780" stroke="#2a2a2a" stroke-width="0.5" style="fill:rgb(0, 0, 0);stroke:rgb(42, 42, 42);color:rgb(255, 255, 255);stroke-width:0.5px;stroke-linecap:butt;stroke-linejoin:miter;opacity:1;font-family:&quot;Anthropic Sans&quot;, -apple-system, BlinkMacSystemFont, &quot;Segoe UI&quot;, sans-serif;font-size:16px;font-weight:400;text-anchor:start;dominant-baseline:auto"/>

  <text x="340" y="185" text-anchor="middle" font-family="'DM Mono', monospace" font-size="11" fill="#444" letter-spacing="4" style="fill:rgb(68, 68, 68);stroke:none;color:rgb(255, 255, 255);stroke-width:1px;stroke-linecap:butt;stroke-linejoin:miter;opacity:1;font-family:&quot;DM Mono&quot;, monospace;font-size:11px;font-weight:400;text-anchor:middle;dominant-baseline:auto">SCIENCE + SYSTEMS</text>

  <text x="340" y="290" text-anchor="middle" font-family="'DM Serif Display', Georgia, serif" font-size="72" fill="#f0ebe0" font-weight="400" letter-spacing="-2" style="fill:rgb(240, 235, 224);stroke:none;color:rgb(255, 255, 255);stroke-width:1px;stroke-linecap:butt;stroke-linejoin:miter;opacity:1;font-family:&quot;DM Serif Display&quot;, Georgia, serif;font-size:72px;font-weight:400;text-anchor:middle;dominant-baseline:auto">The</text>
  <text x="340" y="375" text-anchor="middle" font-family="'DM Serif Display', Georgia, serif" font-size="100" fill="#f0ebe0" font-weight="400" font-style="italic" letter-spacing="-3" style="fill:rgb(240, 235, 224);stroke:none;color:rgb(255, 255, 255);stroke-width:1px;stroke-linecap:butt;stroke-linejoin:miter;opacity:1;font-family:&quot;DM Serif Display&quot;, Georgia, serif;font-size:100px;font-weight:400;font-style:italic;text-anchor:middle;dominant-baseline:auto">second</text>
  <text x="340" y="445" text-anchor="middle" font-family="'DM Serif Display', Georgia, serif" font-size="38" fill="#888" font-weight="400" letter-spacing="1" style="fill:rgb(136, 136, 136);stroke:none;color:rgb(255, 255, 255);stroke-width:1px;stroke-linecap:butt;stroke-linejoin:miter;opacity:1;font-family:&quot;DM Serif Display&quot;, Georgia, serif;font-size:38px;font-weight:400;text-anchor:middle;dominant-baseline:auto">is not what you think.</text>

  <g style="fill:rgb(0, 0, 0);stroke:none;color:rgb(255, 255, 255);stroke-width:1px;stroke-linecap:butt;stroke-linejoin:miter;opacity:1;font-family:&quot;Anthropic Sans&quot;, -apple-system, BlinkMacSystemFont, &quot;Segoe UI&quot;, sans-serif;font-size:16px;font-weight:400;text-anchor:start;dominant-baseline:auto">
    <line x1="90" y1="510" x2="590" y2="510" stroke="#222" stroke-width="0.5" style="fill:rgb(0, 0, 0);stroke:rgb(34, 34, 34);color:rgb(255, 255, 255);stroke-width:0.5px;stroke-linecap:butt;stroke-linejoin:miter;opacity:1;font-family:&quot;Anthropic Sans&quot;, -apple-system, BlinkMacSystemFont, &quot;Segoe UI&quot;, sans-serif;font-size:16px;font-weight:400;text-anchor:start;dominant-baseline:auto"/>
    <path d="M90,510&#10;      C107,510 107,488 124,488&#10;      C141,488 141,532 158,532&#10;      C175,532 175,488 192,488&#10;      C209,488 209,532 226,532&#10;      C243,532 243,488 260,488&#10;      C277,488 277,532 294,532&#10;      C311,532 311,488 328,488&#10;      C345,488 345,532 362,532&#10;      C379,532 379,488 396,488&#10;      C413,488 413,532 430,532&#10;      C447,532 447,488 464,488&#10;      C481,488 481,532 498,532&#10;      C515,532 515,488 532,488&#10;      C549,488 549,532 566,532&#10;      C583,532 583,510 590,510" fill="none" stroke="#f0ebe0" stroke-width="1.2" stroke-linecap="round" style="fill:none;stroke:rgb(240, 235, 224);color:rgb(255, 255, 255);stroke-width:1.2px;stroke-linecap:round;stroke-linejoin:miter;opacity:1;font-family:&quot;Anthropic Sans&quot;, -apple-system, BlinkMacSystemFont, &quot;Segoe UI&quot;, sans-serif;font-size:16px;font-weight:400;text-anchor:start;dominant-baseline:auto"/>

    <path d="M90,510&#10;      C100,510 100,496 110,496&#10;      C120,496 120,524 130,524&#10;      C140,524 140,496 150,496&#10;      C160,496 160,524 170,524&#10;      C180,524 180,496 190,496&#10;      C200,496 200,524 210,524&#10;      C220,524 220,496 230,496&#10;      C240,496 240,524 250,524&#10;      C260,524 260,496 270,496&#10;      C280,496 280,524 290,524&#10;      C300,524 300,496 310,496&#10;      C320,496 320,524 330,524&#10;      C340,524 340,496 350,496&#10;      C360,496 360,524 370,524&#10;      C380,524 380,496 390,496&#10;      C400,496 400,524 410,524&#10;      C420,524 420,496 430,496&#10;      C440,496 440,524 450,524&#10;      C460,524 460,496 470,496&#10;      C480,496 480,524 490,524&#10;      C500,524 500,496 510,496&#10;      C520,496 520,524 530,524&#10;      C540,524 540,496 550,496&#10;      C560,496 560,524 570,524&#10;      C580,524 580,510 590,510" fill="none" stroke="#444" stroke-width="0.6" stroke-linecap="round" style="fill:none;stroke:rgb(68, 68, 68);color:rgb(255, 255, 255);stroke-width:0.6px;stroke-linecap:round;stroke-linejoin:miter;opacity:1;font-family:&quot;Anthropic Sans&quot;, -apple-system, BlinkMacSystemFont, &quot;Segoe UI&quot;, sans-serif;font-size:16px;font-weight:400;text-anchor:start;dominant-baseline:auto"/>
  </g>

  <text x="340" y="595" text-anchor="middle" font-family="'DM Mono', monospace" font-size="22" fill="#f0ebe0" font-weight="300" letter-spacing="2" style="fill:rgb(240, 235, 224);stroke:none;color:rgb(255, 255, 255);stroke-width:1px;stroke-linecap:butt;stroke-linejoin:miter;opacity:1;font-family:&quot;DM Mono&quot;, monospace;font-size:22px;font-weight:300;text-anchor:middle;dominant-baseline:auto">9,192,631,770</text>
  <text x="340" y="622" text-anchor="middle" font-family="'DM Mono', monospace" font-size="10" fill="#555" letter-spacing="3" style="fill:rgb(85, 85, 85);stroke:none;color:rgb(255, 255, 255);stroke-width:1px;stroke-linecap:butt;stroke-linejoin:miter;opacity:1;font-family:&quot;DM Mono&quot;, monospace;font-size:10px;font-weight:400;text-anchor:middle;dominant-baseline:auto">oscillations · per second · caesium-133</text>

  <line x1="200" y1="660" x2="480" y2="660" stroke="#2a2a2a" stroke-width="0.5" style="fill:rgb(0, 0, 0);stroke:rgb(42, 42, 42);color:rgb(255, 255, 255);stroke-width:0.5px;stroke-linecap:butt;stroke-linejoin:miter;opacity:1;font-family:&quot;Anthropic Sans&quot;, -apple-system, BlinkMacSystemFont, &quot;Segoe UI&quot;, sans-serif;font-size:16px;font-weight:400;text-anchor:start;dominant-baseline:auto"/>

  <text x="340" y="700" text-anchor="middle" font-family="'DM Serif Display', Georgia, serif" font-size="15" fill="#666" font-style="italic" letter-spacing="0.5" style="fill:rgb(102, 102, 102);stroke:none;color:rgb(255, 255, 255);stroke-width:1px;stroke-linecap:butt;stroke-linejoin:miter;opacity:1;font-family:&quot;DM Serif Display&quot;, Georgia, serif;font-size:15px;font-weight:400;font-style:italic;text-anchor:middle;dominant-baseline:auto">atoms, clocks, and the architecture of now</text>

  <text x="340" y="755" text-anchor="middle" font-family="'DM Mono', monospace" font-size="10" fill="#333" letter-spacing="3" style="fill:rgb(51, 51, 51);stroke:none;color:rgb(255, 255, 255);stroke-width:1px;stroke-linecap:butt;stroke-linejoin:miter;opacity:1;font-family:&quot;DM Mono&quot;, monospace;font-size:10px;font-weight:400;text-anchor:middle;dominant-baseline:auto">BigQuery · atomic time · distributed systems</text>

</svg>